<svg width="200" height="194" viewBox="0 0 200 194" fill="none" xmlns="http://www.w3.org/2000/svg">
<g clip-path="url(#clip0_496_82)">
<path d="M33.7574 113.707C33.1687 117.984 32.1907 158.468 25.8196 175.122C21.8806 185.4 24.4463 186.237 37.9018 186.197C45.3107 161.846 45.7357 136.877 33.7574 113.707Z" fill="#141414"/>
<path d="M69.3726 97.5155C74.3761 91.5351 82.165 84.3302 89.0192 78.8064C93.6052 75.1165 97.7779 72.1604 100.409 70.8552C103.003 69.5726 106.468 67.883 107.59 65.3719C103.463 61.2508 98.6206 58.8215 93.2509 56.9623C81.9491 53.0577 68.5439 58.9629 66.0639 71.4665C64.7355 78.1518 64.5622 83.3738 64.9588 91.3366C64.994 91.3627 65.0292 91.3887 65.0644 91.4148C66.6219 94.1072 64.9487 96.7005 62.7674 97.517C60.4496 98.3875 57.7992 98.8524 55.3743 96.7253C53.6955 95.2555 53.577 93.717 54.4116 92.0918C54.1934 86.4247 53.4472 79.3812 51.4381 74.0147C45.9662 59.4754 34.1072 57.4895 23.3131 60.5315C17.182 62.2594 12.1794 66.5004 8.69003 72.1178C12.5915 72.9191 23.8893 78.3804 34.9217 85.7627C40.5847 89.5585 46.1862 93.862 50.6732 98.3172C56.5751 104.168 63.6168 103.459 69.3605 97.5149L69.3726 97.5155ZM75.6397 64.5325C76.6144 64.009 77.8255 64.3609 78.349 65.3356C79.2289 66.9727 80.8145 67.3796 82.0029 67.2073C83.522 66.9905 84.6463 65.9027 84.9943 64.2778C85.2304 63.1947 86.3227 62.5068 87.3803 62.7659C88.4513 63.0014 89.1404 64.0695 88.9044 65.1525C88.1834 68.4133 85.7583 70.714 82.5734 71.1645C81.7768 71.2832 80.9869 71.2685 80.2151 71.1329C77.9719 70.7421 75.997 69.355 74.8487 67.2424C74.3252 66.2677 74.6771 65.0566 75.6518 64.5331L75.6397 64.5325ZM33.0905 74.5906C32.303 74.5273 31.5463 74.3317 30.843 74.0414C28.7336 73.1585 27.108 71.3508 26.4691 69.0201C26.181 67.9598 26.8072 66.8595 27.8682 66.5592C28.9286 66.2711 30.0288 66.8973 30.3169 67.9577C30.8117 69.7581 32.2585 70.5109 33.4452 70.6183C34.9712 70.7547 36.3128 69.9453 37.0316 68.4482C37.5067 67.4499 38.7072 67.0349 39.6933 67.5095C40.6916 67.9846 41.1066 69.1851 40.632 70.1712C39.1817 73.1769 36.3001 74.8711 33.0911 74.5785L33.0905 74.5906Z" fill="white"/>
<path d="M23.313 60.5316C34.1078 57.4775 45.9547 59.4628 51.4381 74.0148C53.4593 79.3819 54.2061 86.4133 54.4116 92.0919C54.5588 91.8194 54.7189 91.5354 54.9026 91.2647C56.8815 89.8665 61.8542 88.9327 64.946 91.3483C64.5494 83.3855 64.7228 78.1635 66.0511 71.4781C68.5311 58.9745 81.9363 53.0694 93.2381 56.9739C98.6078 58.8332 103.451 61.2503 107.577 65.3835C108.479 64.1145 108.001 62.473 107.079 60.4567C101.679 48.6336 97.5683 39.0394 92.6074 32.1158C92.3682 31.7877 92.1278 31.4838 91.8886 31.1557C90.2287 31.2682 88.1221 29.838 87.7608 28.0442C86.4854 25.305 80.1466 20.6608 75.7692 19.398C75.768 19.4223 75.7547 19.4459 75.7413 19.4696C74.4333 19.5995 72.2101 19.0515 71.4501 16.9582L71.4513 16.9339C66.2718 15.6558 60.281 15.2863 53.0742 15.6472C44.8675 16.056 38.4107 17.9747 33.309 20.5321C33.3873 20.6697 33.4662 20.7953 33.5324 20.9324C33.1076 23.1252 30.9961 24.006 29.679 24.0746C29.6462 24 29.6013 23.9248 29.5564 23.8496C25.3976 25.5413 19.348 31.2753 18.4935 34.2862C18.4149 36.1191 16.5393 37.8874 14.8788 38.012C14.8448 37.9616 14.7987 37.9107 14.7647 37.8604C14.6507 37.952 14.5378 38.0194 14.4396 38.0389C8.05194 49.6192 9.03768 58.9492 6.36617 69.4241C5.91385 71.1899 7.18219 71.8608 8.70152 72.1307C12.1909 66.5133 17.1935 62.2723 23.3245 60.5444L23.313 60.5316Z" fill="#ED762F"/>
<path d="M89.7617 17.1103C89.2671 14.3246 89.0744 10.1063 85.9067 9.96166C81.2338 9.75469 76.3253 17.7468 75.7947 19.3749C80.16 20.6371 86.5108 25.2818 87.7863 28.0211C89.7152 24.6863 90.3914 20.6083 89.7623 17.0982L89.7617 17.1103Z" fill="white"/>
<path d="M54.9147 91.2652C54.7183 91.5474 54.5588 91.8193 54.4237 92.0924C53.5891 93.7175 53.7075 95.2561 55.3864 96.7259C57.8113 98.853 60.4617 98.3881 62.7795 97.5176C64.9487 96.7005 66.6334 94.1199 65.0765 91.4154C65.0413 91.3893 65.006 91.3632 64.9708 91.3372C61.8663 88.9332 56.9064 89.8554 54.9274 91.2537L54.9147 91.2652Z" fill="#141414"/>
<path d="M75.7662 19.4586C75.7662 19.4586 75.7808 19.4106 75.7941 19.3869C76.3254 17.7468 81.2338 9.7546 85.9062 9.9737C89.0739 10.1183 89.2671 14.3245 89.7611 17.1224C90.3896 20.6446 89.7019 24.7098 87.7851 28.0453C88.1464 29.8391 90.2524 31.2814 91.9129 31.1568C91.9129 31.1568 91.925 31.1574 91.9372 31.158C95.666 25.1267 95.9218 12.586 91.035 7.11354C89.0992 4.93766 86.1147 3.5492 83.6123 5.2013C78.4818 8.58444 73.5969 10.2038 71.5004 16.9241L71.4992 16.9483C72.2593 19.0417 74.4704 19.589 75.7784 19.4592L75.7662 19.4586Z" fill="#141414"/>
<path d="M16.9453 15.428C16.3774 15.3513 15.9273 15.3533 15.5566 15.4688C15.0763 15.8343 14.6968 16.375 14.4095 17.0177C14.188 18.0528 14.17 19.6454 14.2707 22.0346C14.4223 25.6062 16.124 31.2859 18.542 34.2885C19.3965 31.2776 25.4455 25.5557 29.6048 23.8518C28.1134 21.0532 21.5105 16.0919 16.9447 15.4402L16.9453 15.428Z" fill="white"/>
<path d="M18.5425 34.2765C16.1245 31.2739 14.4229 25.5942 14.2712 22.0226C14.1705 19.6335 14.1764 18.0403 14.4101 17.0057C14.6007 16.1028 14.9645 15.6343 15.5572 15.4568C15.9278 15.3414 16.378 15.3393 16.9459 15.4161C21.5117 16.0678 28.1145 21.0292 29.606 23.8277C29.6388 23.9024 29.6958 23.9782 29.7286 24.0528C31.0458 23.9842 33.1451 23.1028 33.5821 20.9105C33.5159 20.7734 33.4248 20.6473 33.3586 20.5102C30.0945 14.4491 22.0747 11.3274 16.2205 9.9185C11.9294 8.87895 11.4179 11.104 10.2404 13.7583C7.29574 20.4123 10.2783 32.4078 14.8258 37.8513C14.8598 37.9016 14.906 37.9525 14.94 38.0029C16.6004 37.8783 18.4761 36.11 18.5547 34.2771L18.5425 34.2765Z" fill="#141414"/>
<path d="M64.7339 150.93C65.508 143.402 70.3493 138.241 77.0188 138.169C78.4165 137.947 79.3456 138.345 79.3857 137.289C79.4635 135.225 74.6752 134.891 70.4491 136.47C64.4875 138.705 62.4845 144.031 61.5675 150.761C60.5356 158.337 64.9107 165.791 64.6773 172.226C65.9288 172.009 67.1354 171.715 68.2145 171.294C68.2986 167.139 64.081 157.977 64.7224 150.917L64.7339 150.93Z" fill="#C15C1F"/>
<path d="M64.6888 172.239C60.8985 172.879 56.7328 172.745 54.5129 172.867C46.5489 173.287 42.4517 178.843 42.9363 186.992C53.6247 188.3 61.2636 187.129 72.0234 186.992C72.4824 180.422 70.7301 176.504 68.2255 171.319C67.1464 171.74 65.9276 172.033 64.6882 172.251L64.6888 172.239Z" fill="#141414"/>
<path d="M74.8364 67.2419C75.9847 69.3545 77.9596 70.7417 80.2028 71.1325C80.9625 71.2674 81.7524 71.2822 82.5611 71.164C85.7461 70.7135 88.1711 68.4129 88.8921 65.1521C89.1275 64.0811 88.4505 63.0136 87.368 62.7654C86.3226 62.5069 85.2296 63.207 84.982 64.2773C84.6219 65.9017 83.5097 66.99 81.9906 67.2068C80.8143 67.3797 79.2288 66.9728 78.3367 65.3351C77.8132 64.3604 76.6021 64.0085 75.6274 64.532C74.6648 65.0561 74.3008 66.2666 74.8243 67.2413L74.8364 67.2419Z" fill="#141414"/>
<path d="M40.6308 70.1956C41.1059 69.1973 40.6904 68.009 39.6921 67.5338C38.706 67.0593 37.5055 67.4742 37.0303 68.4725C36.3115 69.9696 34.9699 70.779 33.444 70.6427C32.2572 70.5353 30.8105 69.7825 30.3157 67.982C30.0276 66.9216 28.9273 66.2955 27.8669 66.5836C26.8066 66.8717 26.1804 67.972 26.4679 69.0445C27.1067 71.3751 28.7324 73.1829 30.8417 74.0658C31.5451 74.356 32.2896 74.551 33.0892 74.6149C36.2983 74.9076 39.1799 73.2134 40.6302 70.2077L40.6308 70.1956Z" fill="#141414"/>
<path d="M176.486 62.9311C166.086 66.613 158.353 71.9595 152.305 82.5714C153.236 84.661 154.531 86.5011 156.981 86.6588C159.248 86.8075 159.785 88.2452 160.527 89.9727C163.091 95.9141 169.774 97.7775 175.106 94.0151C176.745 92.8555 177.732 91.3352 180.093 93.0455C184.684 96.3746 189.482 95.2741 194.148 92.9262C193.17 82.7086 189.59 73.2015 183.892 64.952C182.098 62.3574 179.471 61.8624 176.474 62.9305L176.486 62.9311Z" fill="white"/>
<path d="M194.116 93.5815C189.439 95.9166 184.639 97.0293 180.06 93.7008C177.7 91.9905 176.712 93.5108 175.074 94.6704C169.741 98.4449 163.059 96.5694 160.494 90.628C159.753 88.9005 159.216 87.4628 156.948 87.3141C154.499 87.1564 153.203 85.3163 152.273 83.2267C149.208 87.8919 144.902 94.2718 141.459 103.626C136.217 117.866 135.415 127.923 131.631 142.43C128.885 152.949 123.51 163.728 114.073 169.818C112.49 170.834 110.816 171.737 108.991 172.473C105.743 173.711 104.736 172.664 104.736 172.664C105.742 168.809 106.426 163.357 106.848 158.756C106.873 158.733 106.899 158.71 106.936 158.687C107.088 156.614 107.214 154.553 107.329 152.478L107.372 151.617C107.378 151.483 107.385 151.35 107.391 151.216C107.414 150.755 107.438 150.282 107.46 149.821C109.152 109.739 99.9524 91.6334 89.044 78.7955C82.1899 84.3194 74.4004 91.5364 69.3975 97.5047C63.6531 103.461 56.6121 104.158 50.7102 98.307C46.2232 93.8518 40.6217 89.5483 34.9586 85.7525C35.0629 95.197 33.9733 104.923 33.7829 113.684C45.7612 136.853 45.1234 162.332 37.7144 186.683C39.4472 186.817 41.1922 186.952 42.9365 187.099C42.4519 178.95 46.5743 173.264 54.5383 172.844C56.7582 172.722 60.9233 172.868 64.7143 172.216C64.9349 165.792 60.5726 158.326 61.6044 150.751C62.5214 144.021 64.5245 138.694 70.4861 136.459C74.7122 134.88 79.5126 135.215 79.4226 137.279C79.3698 138.347 78.4413 137.936 77.0557 138.159C70.3862 138.23 65.5455 143.38 64.7709 150.919C64.1295 157.979 68.3471 167.141 68.263 171.297C70.7677 176.481 72.52 180.4 72.061 186.97C74.5175 186.982 77.6299 187.014 80.8279 187.039C80.8291 187.015 80.854 187.004 80.8546 186.991C87.8341 187.045 95.9919 187.132 100.725 187.099C102.791 187.141 104.857 187.182 106.935 187.224C109.069 187.366 111.158 187.433 113.236 187.463C138.491 187.667 159.148 178.289 175.094 156.672C187.586 139.725 194.999 121.688 194.813 100.635C194.796 98.2619 194.164 93.5839 194.164 93.5839L194.116 93.5815Z" fill="#ED762F"/>
</g>
<defs>
<clipPath id="clip0_496_82">
<rect width="189.917" height="183.514" fill="white" transform="translate(9.70728 0.691895) rotate(2.83359)"/>
</clipPath>
</defs>
</svg>
